<svg xmlns="http://www.w3.org/2000/svg" xmlns:xlink="http://www.w3.org/1999/xlink" width="48" zoomAndPan="magnify" viewBox="0 0 36 36.000001" height="48" preserveAspectRatio="xMidYMid meet" version="1.0"><defs><clipPath id="4f0c08762e"><path d="M 6 5.339844 L 30 5.339844 L 30 22 L 6 22 Z M 6 5.339844 " clip-rule="nonzero"/></clipPath><clipPath id="c6929853c3"><path d="M 3.988281 24 L 31.71875 24 L 31.71875 29.421875 L 3.988281 29.421875 Z M 3.988281 24 " clip-rule="nonzero"/></clipPath><clipPath id="dae79c90f4"><path d="M 3.988281 22 L 31.71875 22 L 31.71875 28 L 3.988281 28 Z M 3.988281 22 " clip-rule="nonzero"/></clipPath></defs><path fill="#24265d" d="M 20.175781 15.339844 L 15.523438 15.339844 C 15.441406 15.339844 15.378906 15.402344 15.378906 15.484375 L 15.378906 16.519531 C 15.378906 16.597656 15.441406 16.664062 15.523438 16.664062 L 20.175781 16.664062 C 20.253906 16.664062 20.320312 16.597656 20.320312 16.519531 L 20.320312 15.484375 C 20.320312 15.402344 20.253906 15.339844 20.175781 15.339844 " fill-opacity="1" fill-rule="nonzero"/><path fill="#51ade5" d="M 19.199219 14.496094 L 17.847656 14.195312 L 16.5 14.496094 C 16.421875 14.511719 16.371094 14.578125 16.371094 14.65625 L 16.371094 15.042969 C 16.371094 15.136719 16.445312 15.207031 16.535156 15.207031 L 19.164062 15.207031 C 19.253906 15.207031 19.328125 15.136719 19.328125 15.042969 L 19.328125 14.65625 C 19.328125 14.578125 19.273438 14.511719 19.199219 14.496094 " fill-opacity="1" fill-rule="nonzero"/><path fill="#24265d" d="M 17.847656 18.960938 C 17.847656 18.960938 14.097656 19.664062 10.257812 21.957031 C 10.085938 22.058594 9.992188 22.253906 10.011719 22.453125 C 10.039062 22.738281 10.089844 23.183594 10.148438 23.648438 C 10.171875 23.832031 10.296875 23.996094 10.472656 24.0625 C 17.734375 26.890625 23.890625 24.636719 25.234375 24.070312 C 25.402344 24 25.523438 23.84375 25.546875 23.660156 C 25.609375 23.191406 25.65625 22.742188 25.6875 22.453125 C 25.707031 22.253906 25.609375 22.058594 25.4375 21.957031 C 21.597656 19.664062 17.847656 18.960938 17.847656 18.960938 " fill-opacity="1" fill-rule="nonzero"/><g clip-path="url(#4f0c08762e)"><path fill="#24265d" d="M 28.582031 20.394531 C 28.339844 20.3125 28.101562 20.3125 27.921875 20.375 C 27.800781 20.417969 27.667969 20.394531 27.578125 20.300781 C 27.269531 19.988281 27.03125 19.625 26.878906 19.363281 C 27.027344 18.707031 27.105469 18.023438 27.105469 17.320312 C 27.105469 16.710938 27.046875 16.113281 26.933594 15.535156 C 27.085938 15.269531 27.332031 14.890625 27.652344 14.5625 C 27.738281 14.472656 27.875 14.445312 27.996094 14.488281 C 28.171875 14.550781 28.414062 14.550781 28.65625 14.472656 C 29.085938 14.332031 29.367188 14 29.277344 13.734375 C 29.191406 13.464844 28.769531 13.359375 28.339844 13.5 C 28.097656 13.578125 27.902344 13.71875 27.792969 13.875 C 27.722656 13.980469 27.597656 14.039062 27.472656 14.015625 C 27.039062 13.945312 26.636719 13.789062 26.355469 13.667969 C 25.84375 12.476562 25.085938 11.414062 24.148438 10.542969 C 24.113281 10.238281 24.089844 9.785156 24.15625 9.332031 C 24.175781 9.210938 24.261719 9.105469 24.378906 9.074219 C 24.5625 9.023438 24.761719 8.878906 24.914062 8.667969 C 25.183594 8.300781 25.214844 7.871094 24.984375 7.703125 C 24.757812 7.539062 24.355469 7.699219 24.089844 8.066406 C 23.9375 8.277344 23.859375 8.511719 23.867188 8.703125 C 23.875 8.828125 23.800781 8.941406 23.691406 8.996094 C 23.296875 9.191406 22.878906 9.304688 22.582031 9.367188 C 21.496094 8.722656 20.269531 8.292969 18.957031 8.136719 C 18.75 7.910156 18.464844 7.558594 18.253906 7.152344 C 18.195312 7.039062 18.210938 6.902344 18.289062 6.800781 C 18.402344 6.652344 18.476562 6.425781 18.476562 6.167969 C 18.476562 5.714844 18.246094 5.347656 17.964844 5.347656 C 17.683594 5.347656 17.457031 5.714844 17.457031 6.167969 C 17.457031 6.425781 17.527344 6.652344 17.644531 6.800781 C 17.71875 6.902344 17.738281 7.039062 17.679688 7.152344 C 17.476562 7.542969 17.203125 7.882812 17 8.109375 C 15.679688 8.226562 14.441406 8.625 13.34375 9.238281 C 13.042969 9.175781 12.605469 9.0625 12.195312 8.859375 C 12.085938 8.804688 12.011719 8.6875 12.019531 8.566406 C 12.027344 8.375 11.953125 8.140625 11.796875 7.929688 C 11.53125 7.5625 11.128906 7.398438 10.902344 7.566406 C 10.671875 7.730469 10.703125 8.164062 10.972656 8.527344 C 11.125 8.742188 11.324219 8.882812 11.507812 8.9375 C 11.628906 8.96875 11.714844 9.074219 11.730469 9.195312 C 11.796875 9.632812 11.773438 10.0625 11.742188 10.367188 C 10.78125 11.210938 9.992188 12.253906 9.449219 13.429688 C 9.167969 13.554688 8.746094 13.71875 8.296875 13.792969 C 8.171875 13.816406 8.046875 13.757812 7.976562 13.652344 C 7.867188 13.496094 7.671875 13.355469 7.429688 13.277344 C 7 13.136719 6.578125 13.242188 6.492188 13.507812 C 6.402344 13.777344 6.683594 14.109375 7.113281 14.25 C 7.359375 14.328125 7.597656 14.328125 7.773438 14.265625 C 7.894531 14.222656 8.03125 14.25 8.121094 14.339844 C 8.425781 14.652344 8.664062 15.015625 8.816406 15.28125 C 8.667969 15.9375 8.589844 16.621094 8.589844 17.320312 C 8.589844 17.929688 8.652344 18.527344 8.761719 19.105469 C 8.613281 19.371094 8.367188 19.753906 8.046875 20.078125 C 7.957031 20.171875 7.824219 20.195312 7.703125 20.152344 C 7.523438 20.089844 7.285156 20.089844 7.042969 20.171875 C 6.609375 20.308594 6.332031 20.640625 6.417969 20.910156 C 6.507812 21.175781 6.925781 21.28125 7.355469 21.140625 C 7.601562 21.0625 7.792969 20.921875 7.902344 20.765625 C 7.976562 20.664062 8.097656 20.601562 8.222656 20.625 C 8.65625 20.699219 9.0625 20.851562 9.339844 20.976562 C 9.453125 21.230469 9.574219 21.480469 9.707031 21.722656 L 9.722656 21.714844 C 10.214844 21.410156 10.707031 21.132812 11.191406 20.878906 C 10.625 19.816406 10.300781 18.605469 10.300781 17.320312 C 10.300781 13.15625 13.679688 9.777344 17.847656 9.777344 C 22.015625 9.777344 25.394531 13.15625 25.394531 17.320312 C 25.394531 18.605469 25.074219 19.816406 24.503906 20.878906 C 24.988281 21.132812 25.480469 21.410156 25.972656 21.714844 L 25.992188 21.722656 C 26.082031 21.554688 26.167969 21.386719 26.25 21.214844 C 26.527344 21.085938 26.949219 20.921875 27.402344 20.847656 C 27.527344 20.824219 27.648438 20.886719 27.722656 20.988281 C 27.828125 21.144531 28.023438 21.285156 28.269531 21.363281 C 28.699219 21.503906 29.117188 21.398438 29.207031 21.132812 C 29.292969 20.863281 29.015625 20.53125 28.582031 20.394531 " fill-opacity="1" fill-rule="nonzero"/></g><path fill="#51ade5" d="M 19.65625 18.261719 L 18.1875 18.261719 C 18.144531 18.261719 18.109375 18.226562 18.109375 18.183594 L 18.109375 17.4375 C 18.109375 17.394531 18.144531 17.359375 18.1875 17.359375 L 19.65625 17.359375 C 19.699219 17.359375 19.734375 17.394531 19.734375 17.4375 L 19.734375 18.183594 C 19.734375 18.226562 19.699219 18.261719 19.65625 18.261719 Z M 17.507812 18.261719 L 16.042969 18.261719 C 16 18.261719 15.964844 18.226562 15.964844 18.183594 L 15.964844 17.4375 C 15.964844 17.394531 16 17.359375 16.042969 17.359375 L 17.507812 17.359375 C 17.550781 17.359375 17.585938 17.394531 17.585938 17.4375 L 17.585938 18.183594 C 17.585938 18.226562 17.550781 18.261719 17.507812 18.261719 Z M 10.929688 16.875 L 10.929688 17.632812 L 12.28125 18.039062 L 12.328125 20.503906 C 15.257812 19.136719 17.664062 18.671875 17.789062 18.648438 L 17.847656 18.636719 L 17.90625 18.648438 C 18.035156 18.671875 20.4375 19.136719 23.367188 20.503906 L 23.414062 18.039062 L 24.769531 17.632812 L 24.769531 16.875 L 10.929688 16.875 " fill-opacity="1" fill-rule="nonzero"/><g clip-path="url(#c6929853c3)"><path fill="#24265d" d="M 31.648438 24.558594 C 29.863281 24.730469 28.113281 25.191406 26.472656 25.902344 C 26.167969 26.03125 25.871094 26.164062 25.574219 26.300781 C 24.257812 26.898438 22.980469 27.515625 21.546875 27.867188 C 20.339844 28.164062 19.097656 28.324219 17.855469 28.332031 C 16.613281 28.324219 15.375 28.164062 14.167969 27.867188 C 12.734375 27.515625 11.457031 26.898438 10.140625 26.300781 C 9.84375 26.164062 9.546875 26.03125 9.242188 25.902344 C 7.601562 25.191406 5.851562 24.730469 4.066406 24.558594 C 4.027344 24.554688 3.992188 24.585938 3.992188 24.628906 L 3.992188 25.566406 C 3.992188 25.601562 4.019531 25.628906 4.054688 25.632812 C 5.410156 25.761719 6.753906 26.0625 8.03125 26.535156 C 9.316406 27.007812 10.464844 27.777344 11.738281 28.273438 C 12.824219 28.699219 13.953125 29.003906 15.101562 29.191406 C 16.015625 29.34375 16.9375 29.414062 17.855469 29.410156 C 18.777344 29.414062 19.699219 29.34375 20.613281 29.191406 C 21.761719 29.003906 22.890625 28.699219 23.976562 28.273438 C 25.25 27.777344 26.394531 27.007812 27.679688 26.535156 C 28.957031 26.0625 30.304688 25.761719 31.660156 25.632812 C 31.695312 25.628906 31.722656 25.601562 31.722656 25.566406 L 31.722656 24.628906 C 31.722656 24.585938 31.6875 24.554688 31.648438 24.558594 " fill-opacity="1" fill-rule="nonzero"/></g><g clip-path="url(#dae79c90f4)"><path fill="#51ade5" d="M 31.644531 22.671875 C 29.808594 22.863281 27.796875 23.378906 25.691406 24.425781 C 25.660156 24.441406 25.628906 24.460938 25.601562 24.484375 C 25.59375 24.488281 25.585938 24.488281 25.578125 24.492188 C 22.773438 25.996094 20.136719 26.507812 17.855469 26.515625 C 15.578125 26.507812 12.941406 25.996094 10.132812 24.492188 C 10.128906 24.488281 10.121094 24.488281 10.109375 24.484375 C 10.085938 24.460938 10.054688 24.441406 10.023438 24.425781 C 7.917969 23.378906 5.90625 22.863281 4.066406 22.671875 C 4.027344 22.667969 3.992188 22.699219 3.992188 22.742188 L 3.992188 23.679688 C 3.992188 23.714844 4.019531 23.742188 4.054688 23.746094 C 4.355469 23.777344 4.652344 23.816406 4.953125 23.863281 C 6.769531 24.152344 8.398438 24.8125 10.054688 25.578125 C 11.648438 26.316406 13.261719 27.058594 15.003906 27.355469 C 15.949219 27.519531 16.902344 27.59375 17.855469 27.589844 C 18.8125 27.59375 19.765625 27.519531 20.707031 27.355469 C 22.449219 27.058594 24.066406 26.316406 25.660156 25.578125 C 27.316406 24.8125 28.945312 24.152344 30.761719 23.863281 C 31.0625 23.816406 31.359375 23.777344 31.660156 23.746094 C 31.695312 23.742188 31.722656 23.714844 31.722656 23.679688 L 31.722656 22.742188 C 31.722656 22.699219 31.6875 22.667969 31.644531 22.671875 " fill-opacity="1" fill-rule="nonzero"/></g></svg>