<svg xmlns="http://www.w3.org/2000/svg" xmlns:xlink="http://www.w3.org/1999/xlink" width="48" zoomAndPan="magnify" viewBox="0 0 36 36.000001" height="48" preserveAspectRatio="xMidYMid meet" version="1.0"><defs><g/><clipPath id="bb6f18bf63"><path d="M 13 10.257812 L 22 10.257812 L 22 17 L 13 17 Z M 13 10.257812 " clip-rule="nonzero"/></clipPath><clipPath id="06c5b9db40"><path d="M 12.539062 17 L 22.757812 17 L 22.757812 19.746094 L 12.539062 19.746094 Z M 12.539062 17 " clip-rule="nonzero"/></clipPath></defs><path fill="#24265d" d="M 18.503906 14.195312 L 16.789062 14.195312 C 16.761719 14.195312 16.734375 14.222656 16.734375 14.253906 L 16.734375 14.660156 C 16.734375 14.691406 16.761719 14.71875 16.789062 14.71875 L 18.503906 14.71875 C 18.53125 14.71875 18.554688 14.691406 18.554688 14.660156 L 18.554688 14.253906 C 18.554688 14.222656 18.53125 14.195312 18.503906 14.195312 " fill-opacity="1" fill-rule="nonzero"/><path fill="#51ade5" d="M 18.144531 13.863281 L 17.644531 13.746094 L 17.148438 13.863281 C 17.121094 13.871094 17.101562 13.898438 17.101562 13.925781 L 17.101562 14.082031 C 17.101562 14.117188 17.128906 14.144531 17.164062 14.144531 L 18.128906 14.144531 C 18.164062 14.144531 18.191406 14.117188 18.191406 14.082031 L 18.191406 13.925781 C 18.191406 13.898438 18.171875 13.871094 18.144531 13.863281 " fill-opacity="1" fill-rule="nonzero"/><path fill="#24265d" d="M 17.644531 15.621094 C 17.644531 15.621094 16.265625 15.902344 14.851562 16.804688 C 14.789062 16.84375 14.753906 16.921875 14.761719 17 C 14.769531 17.113281 14.789062 17.289062 14.8125 17.472656 C 14.820312 17.542969 14.867188 17.609375 14.929688 17.632812 C 17.605469 18.75 19.871094 17.863281 20.367188 17.636719 C 20.429688 17.609375 20.472656 17.546875 20.480469 17.476562 C 20.503906 17.292969 20.519531 17.113281 20.53125 17 C 20.539062 16.921875 20.503906 16.84375 20.441406 16.804688 C 19.027344 15.902344 17.644531 15.621094 17.644531 15.621094 " fill-opacity="1" fill-rule="nonzero"/><g clip-path="url(#bb6f18bf63)"><path fill="#24265d" d="M 21.597656 16.1875 C 21.507812 16.15625 21.421875 16.15625 21.355469 16.179688 C 21.3125 16.199219 21.261719 16.1875 21.226562 16.152344 C 21.113281 16.027344 21.027344 15.886719 20.972656 15.78125 C 21.027344 15.523438 21.054688 15.253906 21.054688 14.976562 C 21.054688 14.738281 21.03125 14.5 20.992188 14.273438 C 21.046875 14.167969 21.136719 14.019531 21.253906 13.890625 C 21.289062 13.855469 21.335938 13.84375 21.382812 13.859375 C 21.445312 13.886719 21.535156 13.886719 21.625 13.855469 C 21.785156 13.800781 21.886719 13.667969 21.855469 13.5625 C 21.820312 13.457031 21.667969 13.417969 21.507812 13.472656 C 21.417969 13.503906 21.347656 13.558594 21.308594 13.617188 C 21.28125 13.660156 21.234375 13.683594 21.191406 13.675781 C 21.03125 13.644531 20.882812 13.585938 20.777344 13.535156 C 20.589844 13.066406 20.3125 12.648438 19.964844 12.304688 C 19.953125 12.1875 19.945312 12.007812 19.96875 11.828125 C 19.976562 11.78125 20.007812 11.738281 20.050781 11.726562 C 20.117188 11.707031 20.191406 11.648438 20.25 11.566406 C 20.347656 11.421875 20.359375 11.253906 20.273438 11.1875 C 20.191406 11.121094 20.042969 11.1875 19.945312 11.328125 C 19.886719 11.414062 19.859375 11.503906 19.863281 11.582031 C 19.863281 11.628906 19.835938 11.675781 19.796875 11.695312 C 19.652344 11.773438 19.496094 11.816406 19.386719 11.84375 C 18.988281 11.589844 18.539062 11.417969 18.054688 11.355469 C 17.976562 11.265625 17.871094 11.128906 17.792969 10.96875 C 17.773438 10.925781 17.78125 10.871094 17.808594 10.832031 C 17.851562 10.773438 17.878906 10.683594 17.878906 10.582031 C 17.878906 10.402344 17.792969 10.257812 17.6875 10.257812 C 17.585938 10.257812 17.5 10.402344 17.5 10.582031 C 17.5 10.683594 17.527344 10.773438 17.570312 10.832031 C 17.597656 10.871094 17.605469 10.925781 17.582031 10.96875 C 17.507812 11.125 17.40625 11.257812 17.332031 11.347656 C 16.847656 11.394531 16.390625 11.550781 15.988281 11.792969 C 15.875 11.765625 15.714844 11.722656 15.566406 11.640625 C 15.523438 11.621094 15.496094 11.574219 15.5 11.527344 C 15.503906 11.453125 15.472656 11.359375 15.417969 11.277344 C 15.320312 11.132812 15.171875 11.066406 15.089844 11.132812 C 15.003906 11.199219 15.015625 11.367188 15.113281 11.511719 C 15.171875 11.597656 15.242188 11.652344 15.3125 11.671875 C 15.355469 11.683594 15.386719 11.726562 15.394531 11.773438 C 15.417969 11.945312 15.410156 12.117188 15.398438 12.238281 C 15.042969 12.570312 14.753906 12.980469 14.554688 13.441406 C 14.449219 13.492188 14.292969 13.558594 14.128906 13.585938 C 14.082031 13.597656 14.039062 13.574219 14.011719 13.53125 C 13.972656 13.46875 13.898438 13.414062 13.808594 13.382812 C 13.652344 13.328125 13.496094 13.371094 13.464844 13.476562 C 13.433594 13.582031 13.535156 13.710938 13.695312 13.765625 C 13.78125 13.796875 13.871094 13.796875 13.9375 13.773438 C 13.980469 13.757812 14.03125 13.765625 14.0625 13.800781 C 14.175781 13.925781 14.265625 14.070312 14.320312 14.171875 C 14.265625 14.433594 14.238281 14.699219 14.238281 14.976562 C 14.238281 15.21875 14.257812 15.453125 14.300781 15.679688 C 14.246094 15.785156 14.15625 15.9375 14.035156 16.066406 C 14.003906 16.101562 13.953125 16.109375 13.910156 16.09375 C 13.84375 16.070312 13.757812 16.070312 13.667969 16.101562 C 13.507812 16.15625 13.40625 16.285156 13.4375 16.390625 C 13.46875 16.496094 13.625 16.539062 13.78125 16.484375 C 13.871094 16.453125 13.945312 16.398438 13.984375 16.335938 C 14.011719 16.292969 14.054688 16.269531 14.101562 16.28125 C 14.261719 16.308594 14.410156 16.367188 14.511719 16.417969 C 14.554688 16.519531 14.597656 16.617188 14.648438 16.710938 L 14.652344 16.707031 C 14.835938 16.589844 15.015625 16.480469 15.195312 16.378906 C 14.984375 15.960938 14.867188 15.484375 14.867188 14.976562 C 14.867188 13.335938 16.109375 12.003906 17.644531 12.003906 C 19.179688 12.003906 20.425781 13.335938 20.425781 14.976562 C 20.425781 15.484375 20.304688 15.960938 20.097656 16.378906 C 20.273438 16.480469 20.457031 16.589844 20.636719 16.707031 L 20.644531 16.710938 C 20.675781 16.648438 20.710938 16.578125 20.738281 16.511719 C 20.84375 16.460938 20.996094 16.398438 21.164062 16.367188 C 21.210938 16.359375 21.253906 16.382812 21.28125 16.421875 C 21.320312 16.484375 21.390625 16.539062 21.480469 16.570312 C 21.640625 16.625 21.796875 16.585938 21.828125 16.480469 C 21.859375 16.375 21.757812 16.242188 21.597656 16.1875 " fill-opacity="1" fill-rule="nonzero"/></g><path fill="#51ade5" d="M 18.3125 15.347656 L 17.769531 15.347656 C 17.753906 15.347656 17.742188 15.335938 17.742188 15.316406 L 17.742188 15.023438 C 17.742188 15.007812 17.753906 14.992188 17.769531 14.992188 L 18.3125 14.992188 C 18.328125 14.992188 18.339844 15.007812 18.339844 15.023438 L 18.339844 15.316406 C 18.339844 15.335938 18.328125 15.347656 18.3125 15.347656 Z M 17.519531 15.347656 L 16.980469 15.347656 C 16.964844 15.347656 16.953125 15.335938 16.953125 15.316406 L 16.953125 15.023438 C 16.953125 15.007812 16.964844 14.992188 16.980469 14.992188 L 17.519531 14.992188 C 17.535156 14.992188 17.550781 15.007812 17.550781 15.023438 L 17.550781 15.316406 C 17.550781 15.335938 17.535156 15.347656 17.519531 15.347656 Z M 15.097656 14.800781 L 15.097656 15.101562 L 15.597656 15.257812 L 15.613281 16.230469 C 16.691406 15.691406 17.578125 15.511719 17.625 15.5 L 17.644531 15.496094 L 17.667969 15.5 C 17.714844 15.511719 18.597656 15.691406 19.679688 16.230469 L 19.695312 15.257812 L 20.195312 15.101562 L 20.195312 14.800781 L 15.097656 14.800781 " fill-opacity="1" fill-rule="nonzero"/><g clip-path="url(#06c5b9db40)"><path fill="#24265d" d="M 22.726562 17.832031 C 22.070312 17.898438 21.425781 18.078125 20.820312 18.359375 C 20.710938 18.410156 20.601562 18.464844 20.492188 18.515625 C 20.007812 18.753906 19.535156 18.996094 19.007812 19.132812 C 18.5625 19.25 18.105469 19.3125 17.648438 19.316406 C 17.191406 19.3125 16.734375 19.25 16.289062 19.132812 C 15.761719 18.996094 15.292969 18.753906 14.808594 18.515625 C 14.699219 18.464844 14.589844 18.410156 14.476562 18.359375 C 13.871094 18.078125 13.226562 17.898438 12.570312 17.832031 C 12.558594 17.828125 12.542969 17.839844 12.542969 17.859375 L 12.542969 18.226562 C 12.542969 18.242188 12.554688 18.253906 12.566406 18.253906 C 13.066406 18.304688 13.5625 18.421875 14.03125 18.609375 C 14.503906 18.796875 14.925781 19.097656 15.398438 19.292969 C 15.796875 19.460938 16.210938 19.582031 16.632812 19.65625 C 16.96875 19.714844 17.308594 19.742188 17.648438 19.742188 C 17.988281 19.742188 18.328125 19.714844 18.664062 19.65625 C 19.085938 19.582031 19.503906 19.460938 19.902344 19.292969 C 20.371094 19.097656 20.792969 18.796875 21.265625 18.609375 C 21.738281 18.421875 22.230469 18.304688 22.730469 18.253906 C 22.746094 18.253906 22.753906 18.242188 22.753906 18.226562 L 22.753906 17.859375 C 22.753906 17.839844 22.742188 17.828125 22.726562 17.832031 " fill-opacity="1" fill-rule="nonzero"/><path fill="#51ade5" d="M 22.726562 17.085938 C 22.050781 17.160156 21.308594 17.363281 20.535156 17.777344 C 20.523438 17.785156 20.511719 17.792969 20.5 17.800781 C 20.496094 17.800781 20.496094 17.800781 20.492188 17.804688 C 19.457031 18.394531 18.488281 18.597656 17.648438 18.601562 C 16.808594 18.597656 15.839844 18.394531 14.804688 17.804688 C 14.804688 17.800781 14.800781 17.800781 14.796875 17.800781 C 14.789062 17.792969 14.777344 17.785156 14.765625 17.777344 C 13.988281 17.363281 13.25 17.160156 12.570312 17.085938 C 12.558594 17.085938 12.542969 17.097656 12.542969 17.113281 L 12.542969 17.484375 C 12.542969 17.496094 12.554688 17.507812 12.566406 17.511719 C 12.675781 17.523438 12.789062 17.539062 12.898438 17.554688 C 13.566406 17.667969 14.167969 17.929688 14.777344 18.230469 C 15.363281 18.523438 15.957031 18.816406 16.597656 18.933594 C 16.945312 18.996094 17.296875 19.027344 17.648438 19.023438 C 18 19.027344 18.351562 18.996094 18.699219 18.933594 C 19.339844 18.816406 19.9375 18.523438 20.523438 18.230469 C 21.132812 17.929688 21.730469 17.667969 22.402344 17.554688 C 22.511719 17.539062 22.621094 17.523438 22.730469 17.511719 C 22.746094 17.507812 22.753906 17.496094 22.753906 17.484375 L 22.753906 17.113281 C 22.753906 17.097656 22.742188 17.085938 22.726562 17.085938 " fill-opacity="1" fill-rule="nonzero"/></g><g fill="#262662" fill-opacity="1"><g transform="translate(9.588861, 23.335187)"><g><path d="M 0.734375 0 L 0.3125 0 C 0.269531 0 0.25 -0.0195312 0.25 -0.0625 L 0.25 -2.421875 C 0.25 -2.460938 0.253906 -2.492188 0.265625 -2.515625 C 0.285156 -2.535156 0.304688 -2.539062 0.328125 -2.53125 C 0.359375 -2.53125 0.382812 -2.515625 0.40625 -2.484375 L 1.46875 -1.109375 L 2.546875 -2.484375 C 2.566406 -2.515625 2.585938 -2.53125 2.609375 -2.53125 C 2.640625 -2.539062 2.660156 -2.535156 2.671875 -2.515625 C 2.691406 -2.492188 2.703125 -2.460938 2.703125 -2.421875 L 2.703125 -0.0625 C 2.703125 -0.0195312 2.679688 0 2.640625 0 L 2.21875 0 C 2.175781 0 2.15625 -0.0195312 2.15625 -0.0625 L 2.15625 -1.1875 L 1.515625 -0.40625 C 1.492188 -0.375 1.46875 -0.375 1.4375 -0.40625 L 0.796875 -1.1875 L 0.796875 -0.0625 C 0.796875 -0.0195312 0.773438 0 0.734375 0 Z M 0.734375 0 "/></g></g></g><g fill="#262662" fill-opacity="1"><g transform="translate(13.214948, 23.335187)"><g><path d="M 1.328125 -2.484375 L 2.4375 -0.078125 C 2.445312 -0.0546875 2.445312 -0.0351562 2.4375 -0.015625 C 2.425781 -0.00390625 2.40625 0 2.375 0 L 1.90625 0 C 1.863281 0 1.835938 -0.015625 1.828125 -0.046875 L 1.71875 -0.328125 L 0.765625 -0.328125 L 0.65625 -0.046875 C 0.644531 -0.015625 0.617188 0 0.578125 0 L 0.09375 0 C 0.0703125 0 0.0546875 -0.00390625 0.046875 -0.015625 C 0.0351562 -0.0351562 0.0351562 -0.0546875 0.046875 -0.078125 L 1.15625 -2.484375 C 1.175781 -2.535156 1.203125 -2.5625 1.234375 -2.5625 C 1.273438 -2.5625 1.304688 -2.535156 1.328125 -2.484375 Z M 1.234375 -1.53125 L 0.9375 -0.765625 L 1.546875 -0.765625 Z M 1.234375 -1.53125 "/></g></g></g><g fill="#262662" fill-opacity="1"><g transform="translate(16.367843, 23.335187)"><g><path d="M 1.75 -0.921875 L 2.203125 -0.078125 C 2.210938 -0.0546875 2.210938 -0.0351562 2.203125 -0.015625 C 2.191406 -0.00390625 2.175781 0 2.15625 0 L 1.65625 0 C 1.625 0 1.597656 -0.015625 1.578125 -0.046875 L 1.1875 -0.828125 L 0.8125 -0.828125 L 0.8125 -0.0625 C 0.8125 -0.0195312 0.789062 0 0.75 0 L 0.3125 0 C 0.269531 0 0.25 -0.0195312 0.25 -0.0625 L 0.25 -2.421875 C 0.25 -2.460938 0.269531 -2.484375 0.3125 -2.484375 L 1.234375 -2.484375 C 1.410156 -2.484375 1.554688 -2.460938 1.671875 -2.421875 C 1.785156 -2.378906 1.878906 -2.320312 1.953125 -2.25 C 2.023438 -2.175781 2.078125 -2.085938 2.109375 -1.984375 C 2.140625 -1.890625 2.15625 -1.785156 2.15625 -1.671875 C 2.15625 -1.484375 2.117188 -1.328125 2.046875 -1.203125 C 1.984375 -1.078125 1.882812 -0.984375 1.75 -0.921875 Z M 1.15625 -2 L 0.8125 -2 L 0.8125 -1.3125 L 1.15625 -1.3125 C 1.175781 -1.3125 1.203125 -1.3125 1.234375 -1.3125 C 1.273438 -1.320312 1.316406 -1.332031 1.359375 -1.34375 C 1.398438 -1.351562 1.4375 -1.367188 1.46875 -1.390625 C 1.507812 -1.421875 1.539062 -1.457031 1.5625 -1.5 C 1.582031 -1.539062 1.59375 -1.597656 1.59375 -1.671875 C 1.59375 -1.734375 1.582031 -1.785156 1.5625 -1.828125 C 1.539062 -1.867188 1.515625 -1.898438 1.484375 -1.921875 C 1.453125 -1.941406 1.414062 -1.957031 1.375 -1.96875 C 1.332031 -1.976562 1.289062 -1.984375 1.25 -1.984375 C 1.21875 -1.992188 1.1875 -2 1.15625 -2 Z M 1.15625 -2 "/></g></g></g><g fill="#262662" fill-opacity="1"><g transform="translate(19.395956, 23.335187)"><g><path d="M 0.75 0 L 0.3125 0 C 0.269531 0 0.25 -0.0195312 0.25 -0.0625 L 0.25 -2.421875 C 0.25 -2.460938 0.269531 -2.484375 0.3125 -2.484375 L 0.75 -2.484375 C 0.789062 -2.484375 0.8125 -2.460938 0.8125 -2.421875 L 0.8125 -0.0625 C 0.8125 -0.0195312 0.789062 0 0.75 0 Z M 0.75 0 "/></g></g></g><g fill="#262662" fill-opacity="1"><g transform="translate(21.117927, 23.335187)"><g><path d="M 0.734375 0 L 0.3125 0 C 0.269531 0 0.25 -0.0195312 0.25 -0.0625 L 0.25 -2.421875 C 0.25 -2.484375 0.265625 -2.519531 0.296875 -2.53125 C 0.328125 -2.550781 0.363281 -2.539062 0.40625 -2.5 L 1.8125 -1.09375 L 1.8125 -2.421875 C 1.8125 -2.460938 1.832031 -2.484375 1.875 -2.484375 L 2.296875 -2.484375 C 2.335938 -2.484375 2.359375 -2.460938 2.359375 -2.421875 L 2.359375 -0.0625 C 2.359375 -0.0195312 2.347656 0.0078125 2.328125 0.03125 C 2.316406 0.0507812 2.296875 0.0546875 2.265625 0.046875 C 2.242188 0.046875 2.21875 0.03125 2.1875 0 L 0.796875 -1.421875 L 0.796875 -0.0625 C 0.796875 -0.0195312 0.773438 0 0.734375 0 Z M 0.734375 0 "/></g></g></g><g fill="#262662" fill-opacity="1"><g transform="translate(24.398843, 23.335187)"><g><path d="M 1.765625 0 L 0.3125 0 C 0.269531 0 0.25 -0.0195312 0.25 -0.0625 L 0.25 -2.421875 C 0.25 -2.460938 0.269531 -2.484375 0.3125 -2.484375 L 1.765625 -2.484375 C 1.804688 -2.484375 1.828125 -2.460938 1.828125 -2.421875 L 1.828125 -2.0625 C 1.828125 -2.019531 1.804688 -2 1.765625 -2 L 0.8125 -2 L 0.8125 -1.296875 L 1.625 -1.296875 C 1.675781 -1.296875 1.703125 -1.273438 1.703125 -1.234375 L 1.703125 -0.90625 C 1.703125 -0.863281 1.675781 -0.84375 1.625 -0.84375 L 0.8125 -0.84375 L 0.8125 -0.484375 L 1.765625 -0.484375 C 1.804688 -0.484375 1.828125 -0.460938 1.828125 -0.421875 L 1.828125 -0.0625 C 1.828125 -0.0195312 1.804688 0 1.765625 0 Z M 1.765625 0 "/></g></g></g><g fill="#24265d" fill-opacity="1"><g transform="translate(13.512349, 25.378327)"><g><path d="M 0.59375 0.03125 C 0.507812 0.03125 0.4375 0.0195312 0.375 0 C 0.3125 -0.03125 0.253906 -0.0664062 0.203125 -0.109375 C 0.160156 -0.160156 0.125 -0.21875 0.09375 -0.28125 C 0.0703125 -0.34375 0.0625 -0.414062 0.0625 -0.5 C 0.0625 -0.570312 0.0703125 -0.640625 0.09375 -0.703125 C 0.125 -0.773438 0.160156 -0.832031 0.203125 -0.875 C 0.253906 -0.925781 0.3125 -0.960938 0.375 -0.984375 C 0.4375 -1.003906 0.507812 -1.015625 0.59375 -1.015625 C 0.675781 -1.015625 0.753906 -1 0.828125 -0.96875 C 0.898438 -0.9375 0.957031 -0.894531 1 -0.84375 C 1.019531 -0.832031 1.019531 -0.820312 1 -0.8125 L 0.859375 -0.71875 C 0.847656 -0.707031 0.835938 -0.707031 0.828125 -0.71875 C 0.796875 -0.75 0.757812 -0.769531 0.71875 -0.78125 C 0.675781 -0.800781 0.632812 -0.8125 0.59375 -0.8125 C 0.550781 -0.8125 0.507812 -0.800781 0.46875 -0.78125 C 0.425781 -0.769531 0.390625 -0.75 0.359375 -0.71875 C 0.335938 -0.695312 0.316406 -0.664062 0.296875 -0.625 C 0.285156 -0.59375 0.28125 -0.550781 0.28125 -0.5 C 0.28125 -0.445312 0.285156 -0.398438 0.296875 -0.359375 C 0.316406 -0.328125 0.335938 -0.296875 0.359375 -0.265625 C 0.390625 -0.234375 0.425781 -0.210938 0.46875 -0.203125 C 0.507812 -0.191406 0.550781 -0.1875 0.59375 -0.1875 C 0.632812 -0.1875 0.675781 -0.191406 0.71875 -0.203125 C 0.757812 -0.222656 0.796875 -0.25 0.828125 -0.28125 C 0.835938 -0.289062 0.847656 -0.289062 0.859375 -0.28125 L 1 -0.1875 C 1.019531 -0.175781 1.023438 -0.164062 1.015625 -0.15625 C 0.960938 -0.09375 0.898438 -0.046875 0.828125 -0.015625 C 0.753906 0.015625 0.675781 0.03125 0.59375 0.03125 Z M 0.59375 0.03125 "/></g></g></g><g fill="#24265d" fill-opacity="1"><g transform="translate(14.908818, 25.378327)"><g><path d="M 0.59375 0.03125 C 0.507812 0.03125 0.4375 0.0195312 0.375 0 C 0.3125 -0.03125 0.253906 -0.0664062 0.203125 -0.109375 C 0.160156 -0.160156 0.125 -0.21875 0.09375 -0.28125 C 0.0703125 -0.34375 0.0625 -0.414062 0.0625 -0.5 C 0.0625 -0.570312 0.0703125 -0.640625 0.09375 -0.703125 C 0.125 -0.773438 0.160156 -0.832031 0.203125 -0.875 C 0.253906 -0.925781 0.3125 -0.960938 0.375 -0.984375 C 0.4375 -1.003906 0.507812 -1.015625 0.59375 -1.015625 C 0.664062 -1.015625 0.734375 -1.003906 0.796875 -0.984375 C 0.867188 -0.960938 0.925781 -0.925781 0.96875 -0.875 C 1.019531 -0.832031 1.054688 -0.773438 1.078125 -0.703125 C 1.109375 -0.640625 1.125 -0.570312 1.125 -0.5 C 1.125 -0.414062 1.109375 -0.34375 1.078125 -0.28125 C 1.054688 -0.21875 1.019531 -0.160156 0.96875 -0.109375 C 0.925781 -0.0664062 0.867188 -0.03125 0.796875 0 C 0.734375 0.0195312 0.664062 0.03125 0.59375 0.03125 Z M 0.59375 -0.1875 C 0.632812 -0.1875 0.671875 -0.191406 0.703125 -0.203125 C 0.742188 -0.210938 0.78125 -0.234375 0.8125 -0.265625 C 0.84375 -0.296875 0.863281 -0.328125 0.875 -0.359375 C 0.894531 -0.398438 0.90625 -0.445312 0.90625 -0.5 C 0.90625 -0.550781 0.894531 -0.59375 0.875 -0.625 C 0.863281 -0.664062 0.84375 -0.695312 0.8125 -0.71875 C 0.78125 -0.75 0.742188 -0.769531 0.703125 -0.78125 C 0.671875 -0.800781 0.632812 -0.8125 0.59375 -0.8125 C 0.550781 -0.8125 0.507812 -0.800781 0.46875 -0.78125 C 0.425781 -0.769531 0.390625 -0.75 0.359375 -0.71875 C 0.335938 -0.695312 0.316406 -0.664062 0.296875 -0.625 C 0.285156 -0.59375 0.28125 -0.550781 0.28125 -0.5 C 0.28125 -0.445312 0.285156 -0.398438 0.296875 -0.359375 C 0.316406 -0.328125 0.335938 -0.296875 0.359375 -0.265625 C 0.390625 -0.234375 0.425781 -0.210938 0.46875 -0.203125 C 0.507812 -0.191406 0.550781 -0.1875 0.59375 -0.1875 Z M 0.59375 -0.1875 "/></g></g></g><g fill="#24265d" fill-opacity="1"><g transform="translate(16.433124, 25.378327)"><g><path d="M 0.296875 0 L 0.125 0 C 0.101562 0 0.09375 -0.0078125 0.09375 -0.03125 L 0.09375 -0.96875 C 0.09375 -0.988281 0.0976562 -1.003906 0.109375 -1.015625 C 0.128906 -1.023438 0.148438 -1.019531 0.171875 -1 L 0.734375 -0.4375 L 0.734375 -0.96875 C 0.734375 -0.988281 0.738281 -1 0.75 -1 L 0.921875 -1 C 0.941406 -1 0.953125 -0.988281 0.953125 -0.96875 L 0.953125 -0.015625 C 0.953125 -0.00390625 0.945312 0 0.9375 0 C 0.925781 0.0078125 0.914062 0.015625 0.90625 0.015625 C 0.894531 0.015625 0.882812 0.0078125 0.875 0 L 0.3125 -0.5625 L 0.3125 -0.03125 C 0.3125 -0.0078125 0.304688 0 0.296875 0 Z M 0.296875 0 "/></g></g></g><g fill="#24265d" fill-opacity="1"><g transform="translate(17.819908, 25.378327)"><g><path d="M 0.296875 0 L 0.125 0 C 0.101562 0 0.09375 -0.0078125 0.09375 -0.03125 L 0.09375 -0.96875 C 0.09375 -0.988281 0.0976562 -1.003906 0.109375 -1.015625 C 0.128906 -1.023438 0.148438 -1.019531 0.171875 -1 L 0.734375 -0.4375 L 0.734375 -0.96875 C 0.734375 -0.988281 0.738281 -1 0.75 -1 L 0.921875 -1 C 0.941406 -1 0.953125 -0.988281 0.953125 -0.96875 L 0.953125 -0.015625 C 0.953125 -0.00390625 0.945312 0 0.9375 0 C 0.925781 0.0078125 0.914062 0.015625 0.90625 0.015625 C 0.894531 0.015625 0.882812 0.0078125 0.875 0 L 0.3125 -0.5625 L 0.3125 -0.03125 C 0.3125 -0.0078125 0.304688 0 0.296875 0 Z M 0.296875 0 "/></g></g></g><g fill="#24265d" fill-opacity="1"><g transform="translate(19.206693, 25.378327)"><g><path d="M 0.703125 0 L 0.125 0 C 0.101562 0 0.09375 -0.0078125 0.09375 -0.03125 L 0.09375 -0.96875 C 0.09375 -0.988281 0.101562 -1 0.125 -1 L 0.703125 -1 C 0.722656 -1 0.734375 -0.988281 0.734375 -0.96875 L 0.734375 -0.828125 C 0.734375 -0.804688 0.722656 -0.796875 0.703125 -0.796875 L 0.328125 -0.796875 L 0.328125 -0.515625 L 0.65625 -0.515625 C 0.675781 -0.515625 0.6875 -0.507812 0.6875 -0.5 L 0.6875 -0.359375 C 0.6875 -0.335938 0.675781 -0.328125 0.65625 -0.328125 L 0.328125 -0.328125 L 0.328125 -0.203125 L 0.703125 -0.203125 C 0.722656 -0.203125 0.734375 -0.191406 0.734375 -0.171875 L 0.734375 -0.03125 C 0.734375 -0.0078125 0.722656 0 0.703125 0 Z M 0.703125 0 "/></g></g></g><g fill="#24265d" fill-opacity="1"><g transform="translate(20.349426, 25.378327)"><g><path d="M 0.59375 0.03125 C 0.507812 0.03125 0.4375 0.0195312 0.375 0 C 0.3125 -0.03125 0.253906 -0.0664062 0.203125 -0.109375 C 0.160156 -0.160156 0.125 -0.21875 0.09375 -0.28125 C 0.0703125 -0.34375 0.0625 -0.414062 0.0625 -0.5 C 0.0625 -0.570312 0.0703125 -0.640625 0.09375 -0.703125 C 0.125 -0.773438 0.160156 -0.832031 0.203125 -0.875 C 0.253906 -0.925781 0.3125 -0.960938 0.375 -0.984375 C 0.4375 -1.003906 0.507812 -1.015625 0.59375 -1.015625 C 0.675781 -1.015625 0.753906 -1 0.828125 -0.96875 C 0.898438 -0.9375 0.957031 -0.894531 1 -0.84375 C 1.019531 -0.832031 1.019531 -0.820312 1 -0.8125 L 0.859375 -0.71875 C 0.847656 -0.707031 0.835938 -0.707031 0.828125 -0.71875 C 0.796875 -0.75 0.757812 -0.769531 0.71875 -0.78125 C 0.675781 -0.800781 0.632812 -0.8125 0.59375 -0.8125 C 0.550781 -0.8125 0.507812 -0.800781 0.46875 -0.78125 C 0.425781 -0.769531 0.390625 -0.75 0.359375 -0.71875 C 0.335938 -0.695312 0.316406 -0.664062 0.296875 -0.625 C 0.285156 -0.59375 0.28125 -0.550781 0.28125 -0.5 C 0.28125 -0.445312 0.285156 -0.398438 0.296875 -0.359375 C 0.316406 -0.328125 0.335938 -0.296875 0.359375 -0.265625 C 0.390625 -0.234375 0.425781 -0.210938 0.46875 -0.203125 C 0.507812 -0.191406 0.550781 -0.1875 0.59375 -0.1875 C 0.632812 -0.1875 0.675781 -0.191406 0.71875 -0.203125 C 0.757812 -0.222656 0.796875 -0.25 0.828125 -0.28125 C 0.835938 -0.289062 0.847656 -0.289062 0.859375 -0.28125 L 1 -0.1875 C 1.019531 -0.175781 1.023438 -0.164062 1.015625 -0.15625 C 0.960938 -0.09375 0.898438 -0.046875 0.828125 -0.015625 C 0.753906 0.015625 0.675781 0.03125 0.59375 0.03125 Z M 0.59375 0.03125 "/></g></g></g><g fill="#24265d" fill-opacity="1"><g transform="translate(21.745895, 25.378327)"><g><path d="M 0.453125 0 L 0.28125 0 C 0.257812 0 0.25 -0.0078125 0.25 -0.03125 L 0.25 -0.796875 L 0.046875 -0.796875 C 0.0234375 -0.796875 0.015625 -0.804688 0.015625 -0.828125 L 0.015625 -0.96875 C 0.015625 -0.988281 0.0234375 -1 0.046875 -1 L 0.6875 -1 C 0.707031 -1 0.71875 -0.988281 0.71875 -0.96875 L 0.71875 -0.828125 C 0.71875 -0.804688 0.707031 -0.796875 0.6875 -0.796875 L 0.484375 -0.796875 L 0.484375 -0.03125 C 0.484375 -0.0078125 0.472656 0 0.453125 0 Z M 0.453125 0 "/></g></g></g></svg>